<svg width="27" height="27" viewBox="0 0 27 27" fill="none" xmlns="http://www.w3.org/2000/svg">
<path d="M4.5771 4.61799H11.0291V11.07H4.5771V4.61799ZM21.7831 4.61799V11.07H15.3321V4.61799H21.7831ZM15.3321 16.449H17.4831V14.298H15.3321V12.147H17.4831V14.298H19.6341V12.147H21.7851V14.298H19.6341V16.449H21.7851V19.675H19.6341V21.826H17.4831V19.675H14.2571V21.826H12.1061V17.526H15.3321V16.449ZM17.4831 16.449V19.675H19.6341V16.449H17.4831ZM4.5771 21.826V15.373H11.0291V21.825L4.5771 21.826ZM6.7291 6.76999V8.91799H8.8771V6.76999H6.7291ZM17.4831 6.76999V8.91799H19.6341V6.76999H17.4831ZM6.7291 17.524V19.675H8.8771V17.524H6.7291ZM4.5771 12.147H6.7291V14.298H4.5771V12.147ZM9.9541 12.147H14.2541V16.447H12.1061V14.298H9.9551V12.147M12.1061 6.76999H14.2571V11.07H12.1061V6.76999ZM2.4281 2.46999V6.76999H0.2771V2.46999C0.276968 2.18744 0.332509 1.90762 0.440548 1.64653C0.548587 1.38545 0.707008 1.1482 0.90676 0.94836C1.10651 0.748515 1.34368 0.589984 1.60472 0.481824C1.86575 0.373664 2.14554 0.317993 2.4281 0.317993L6.7281 0.317993V2.46899L2.4281 2.46999ZM23.9351 0.317993C24.5056 0.317993 25.0527 0.544616 25.4561 0.948006C25.8595 1.3514 26.0861 1.89851 26.0861 2.46899V6.76899H23.9351V2.46899H19.6351V0.317993H23.9351ZM2.4281 19.675V23.975H6.7281V26.126H2.4281C1.85779 26.126 1.31083 25.8995 0.907467 25.4963C0.504105 25.0932 0.277365 24.5463 0.2771 23.976V19.676L2.4281 19.675ZM23.9361 23.976V19.676H26.0871V23.976C26.0871 24.5465 25.8605 25.0936 25.4571 25.497C25.0537 25.9004 24.5066 26.127 23.9361 26.127H19.6361V23.976H23.9361Z" fill="white"/>
</svg>
